<svg id="Layer_1" data-name="Layer 1" xmlns="http://www.w3.org/2000/svg" xmlns:xlink="http://www.w3.org/1999/xlink" viewBox="0 0 558.937 261.2697"><defs><linearGradient id="linear-gradient" x1="225.9752" y1="166.9456" x2="225.9752" y2="65.6541" gradientUnits="userSpaceOnUse"><stop offset="0" stop-color="#6553a2"/><stop offset="0.4129" stop-color="#5e5474"/><stop offset="0.4891" stop-color="#4e446b"/><stop offset="0.6176" stop-color="#392e5e"/><stop offset="0.7006" stop-color="#312659"/><stop offset="0.7513" stop-color="#2a204e"/><stop offset="0.833" stop-color="#221a43"/><stop offset="0.9262" stop-color="#201840"/><stop offset="0.9271" stop-color="#1f183e"/><stop offset="0.9401" stop-color="#19142a"/><stop offset="0.9548" stop-color="#14121b"/><stop offset="0.9723" stop-color="#111013"/><stop offset="1" stop-color="#101010"/></linearGradient></defs><text transform="translate(309.4584 246.1885)" style="font-size:36.69382858276367px;fill:#59251f;font-family:AvenirNext-Regular, Avenir Next;letter-spacing:0.12601637975907642em">e<tspan x="25.6123" y="0" style="letter-spacing:0.1319778726980486em">xpeditions</tspan></text><text transform="translate(0.7323 190.6778)" style="font-size:104.83446502685547px;fill:#346274;font-family:Storybook">Moonlight</text><path d="M327.2666,166.9456H124.6838a101.2914,101.2914,0,1,1,202.5828,0Z" transform="translate(-27.9419 -65.6541)" style="fill:url(#linear-gradient)"/><polygon points="164.064 65.671 167.121 61.44 169.409 58.544 172.75 54.09 175.2 49.78 181.658 41.173 187.449 31.597 196.302 26.029 207.746 40.728 214.625 49.78 219.667 58.099 224.182 64.244 228.872 72.798 238.894 82.151 242.012 91.06 246.059 94.846 248.025 97.963 250.624 100.636 253.296 102.1 192.497 102.1 175.901 102.1 162.196 102.1 152.515 102.1 156.047 94.177 157.606 88.164 158.942 82.819 158.942 74.579 164.064 65.671" style="fill:#fff"/><polygon points="104.737 102.1 108.509 95.811 116.556 93.799 123.849 81.725 128.393 78.455 132.147 71.161 136.422 70.155 141.702 61.854 155.533 49.78 159.808 53.05 163.58 57.075 165.089 63.363 173.387 73.173 175.399 82.48 179.673 92.793 182.188 97.572 184.703 102.1 104.737 102.1" style="fill:#fff"/><polygon points="213.839 86.939 215.398 78.031 217.625 71.127 219.667 66.673 221.968 62.776 223.527 59.101 226.756 52.531 238.003 44.291 245.241 52.531 251.254 57.876 257.49 60.883 263.392 69.123 267.178 74.691 270.63 79.59 273.191 83.933 276.493 86.127 278.002 89.02 284.791 94.931 287.683 96.692 291.329 102.1 206.644 102.1 208.94 97.963 211.167 95.736 212.37 93.732 213.839 86.939" style="fill:#fff"/></svg>